<svg width="15" height="11" viewBox="0 0 15 11" fill="none" xmlns="http://www.w3.org/2000/svg">
<path d="M14.4896 0.510272C14.3928 0.412638 14.2776 0.335144 14.1506 0.28226C14.0237 0.229376 13.8876 0.202148 13.75 0.202148C13.6125 0.202148 13.4764 0.229376 13.3494 0.28226C13.2225 0.335144 13.1073 0.412638 13.0105 0.510272L5.25005 8.28111L1.98963 5.01027C1.88909 4.91315 1.7704 4.83678 1.64034 4.78552C1.51029 4.73427 1.37141 4.70914 1.23164 4.71155C1.09186 4.71397 0.953937 4.7439 0.82573 4.79962C0.697524 4.85534 0.581548 4.93577 0.484424 5.03631C0.387301 5.13686 0.310932 5.25555 0.259678 5.3856C0.208424 5.51566 0.183288 5.65454 0.185706 5.79431C0.188124 5.93408 0.218049 6.07201 0.273772 6.20022C0.329494 6.32842 0.409923 6.4444 0.510466 6.54152L4.51047 10.5415C4.6073 10.6392 4.72251 10.7166 4.84945 10.7695C4.97639 10.8224 5.11254 10.8496 5.25005 10.8496C5.38756 10.8496 5.52371 10.8224 5.65065 10.7695C5.77759 10.7166 5.8928 10.6392 5.98963 10.5415L14.4896 2.04152C14.5954 1.94398 14.6797 1.82559 14.7375 1.69382C14.7952 1.56205 14.825 1.41975 14.825 1.2759C14.825 1.13204 14.7952 0.989744 14.7375 0.857973C14.6797 0.726203 14.5954 0.607816 14.4896 0.510272Z" fill="white"/>
</svg>
