<svg width="52" height="16" viewBox="0 0 52 16" fill="none" xmlns="http://www.w3.org/2000/svg">
    <g clip-path="url(#clip0_2531_3046)">
        <path
                d="M28.7742 2.41242L25.6042 9.28132H25.2819V0.917114H20.7734V15.0829H24.6004C25.0923 15.0831 25.574 14.9421 25.9882 14.6768C26.4024 14.4114 26.7319 14.0328 26.9374 13.5858L30.1074 6.71693H30.4297V15.0882H34.9382V0.917114H31.1113C30.6196 0.917209 30.1383 1.05807 29.7241 1.32305C29.31 1.58803 28.9804 1.96605 28.7742 2.41242Z"
                fill="#20AA4D"/>
        <path
                d="M11.8689 2.77876L9.9915 9.29541H9.6657L7.78833 2.77876C7.63377 2.24364 7.30999 1.77301 6.86549 1.43739C6.42099 1.10176 5.87971 0.919223 5.32275 0.917114H0.8125V15.0829H5.31923V6.71165H5.64152L8.21629 15.0829H11.4356L14.0122 6.71165H14.3344V15.0829H18.8429V0.917114H14.3344C13.7775 0.919223 13.2362 1.10176 12.7917 1.43739C12.3472 1.77301 12.0234 2.24364 11.8689 2.77876Z"
                fill="#20AA4D"/>
        <path
                d="M36.875 7.35645V15.0831H41.3659V10.576H46.209C47.206 10.5741 48.1781 10.2636 48.9916 9.68719C49.8052 9.11072 50.4203 8.29655 50.7527 7.35645H36.875Z"
                fill="#20AA4D"/>
        <path
                d="M46.2122 0.917114H36.2266C36.527 2.54432 37.3879 4.01488 38.6596 5.07342C39.9314 6.13195 41.5337 6.71158 43.1883 6.71165H50.9373C51.0799 6.0106 51.0651 5.28661 50.8939 4.59199C50.7227 3.89736 50.3994 3.24943 49.9473 2.695C49.4951 2.14056 48.9256 1.69347 48.2796 1.38601C47.6337 1.07855 46.9275 0.918394 46.2122 0.917114Z"
                fill="url(#paint0_linear_2531_3046)"/>
    </g>
    <defs>
        <linearGradient id="paint0_linear_2531_3046" x1="36.2266" y1="3.81438" x2="51.0359" y2="3.81438"
                        gradientUnits="userSpaceOnUse">
            <stop offset="0.01" stop-color="#00A7E3"/>
            <stop offset="0.34" stop-color="#009EDC"/>
            <stop offset="0.87" stop-color="#0085C9"/>
            <stop offset="1" stop-color="#007EC4"/>
        </linearGradient>
        <clipPath id="clip0_2531_3046">
            <rect width="50.8331" height="15" fill="white" transform="translate(0.5 0.5)"/>
        </clipPath>
    </defs>
</svg>
