<svg width="52" height="16" viewBox="0 0 52 16" fill="none" xmlns="http://www.w3.org/2000/svg">
    <g clip-path="url(#clip0_2531_3036)">
        <path d="M17.9453 15.2833L20.4767 0.752441H24.5245L21.9917 15.2833H17.9453Z" fill="#137CB2"/>
        <path
                d="M36.6731 1.11059C35.5115 0.698515 34.2843 0.491682 33.0488 0.499738C29.0488 0.499738 26.2319 2.46998 26.2073 5.29567C26.1854 7.38354 28.2196 8.54777 29.7592 9.24283C31.3343 9.95527 31.8644 10.4097 31.8562 11.046C31.8466 12.0191 30.598 12.4642 29.434 12.4642C27.8138 12.4642 26.9532 12.245 25.624 11.7023L25.1021 11.471L24.5352 14.7231C25.4805 15.1241 27.2291 15.481 29.0433 15.4997C33.2988 15.4997 36.0611 13.5509 36.0925 10.5354C36.1075 8.88193 35.0297 7.62414 32.6936 6.58689C31.2797 5.91856 30.4122 5.46543 30.4217 4.78507C30.4217 4.1809 31.1554 3.53529 32.7441 3.53529C33.7827 3.51205 34.8148 3.70145 35.7742 4.09134L36.1266 4.25976L36.6731 1.11059Z"
                fill="#137CB2"/>
        <path
                d="M47.0603 0.76709H43.9319C42.9633 0.76709 42.2379 1.0264 41.8117 1.97008L35.8008 15.2872H40.0521C40.0521 15.2872 40.7489 13.4974 40.9128 13.1045H46.0972C46.2188 13.6124 46.589 15.2819 46.589 15.2819H50.339L47.0603 0.76709ZM42.0713 10.1317C42.406 9.29498 43.6833 6.06962 43.6833 6.06962C43.66 6.10838 44.0152 5.22886 44.2201 4.6835L44.4934 5.93595C44.4934 5.93595 45.268 9.41127 45.4292 10.1317H42.0713Z"
                fill="#137CB2"/>
        <path
                d="M14.5592 0.76709L10.5974 10.6758L10.1753 8.65338C9.43759 6.33161 7.13842 3.81601 4.57422 2.55688L8.19852 15.2658H12.4813L18.846 0.76709H14.5592Z"
                fill="#137CB2"/>
        <path
                d="M6.91515 0.754028H0.38785L0.335938 1.05611C5.41379 2.25911 8.77443 5.16634 10.172 8.65904L8.75257 1.97574C8.50531 1.06146 7.79493 0.786108 6.91515 0.754028Z"
                fill="#EF9B11"/>
    </g>
    <defs>
        <clipPath id="clip0_2531_3036">
            <rect width="49.9998" height="15" fill="white" transform="translate(0.328125 0.5)"/>
        </clipPath>
    </defs>
</svg>
