<svg width="24" height="24" viewBox="0 0 24 24" fill="none" xmlns="http://www.w3.org/2000/svg">
    <path
            d="M18.81 16.0824C18.3285 15.6939 17.8114 15.3437 17.3026 14.988C16.2876 14.2767 15.3575 14.2221 14.6024 15.3683C14.1757 16.0112 13.582 16.0386 12.961 15.7568C11.2589 15.0469 9.88993 13.7171 9.13102 12.0362C8.78632 11.2647 8.79179 10.5725 9.59339 10.0281C10.0201 9.73816 10.4497 9.39615 10.4141 8.76697C10.3703 7.94624 8.37322 5.21045 7.58535 4.90681C7.26735 4.7905 6.91846 4.7905 6.60054 4.90681C4.7512 5.53055 3.98791 7.04894 4.72107 8.84902C6.90961 14.2221 10.7588 17.9618 16.0578 20.2434C16.325 20.3406 16.5995 20.4165 16.8785 20.4705C18.085 20.4705 19.4994 19.3215 19.907 18.167C20.3009 17.0563 19.472 16.6158 18.8127 16.0879L18.81 16.0824Z"
            fill="white"/>
    <path
            d="M12.8681 5.24367C16.7419 5.8373 18.5283 7.68126 19.0234 11.5824C19.0699 11.9435 18.9331 12.488 19.4475 12.4962C19.9618 12.5043 19.8578 11.9736 19.8606 11.6125C19.9071 7.93567 16.7009 4.52965 12.9803 4.40381C12.7067 4.4421 12.1185 4.20956 12.0829 4.83879C12.0583 5.26279 12.548 5.19447 12.8681 5.24367Z"
            fill="white"/>
    <path
            d="M13.6255 6.31153C13.2534 6.26503 12.761 6.0899 12.6734 6.60696C12.5859 7.12401 13.1303 7.09394 13.4942 7.17329C15.8879 7.72042 16.7196 8.57947 17.1136 10.9541C17.171 11.2988 17.0588 11.8377 17.6607 11.7502C18.0957 11.6818 17.9342 11.2222 17.9753 10.9514C17.9944 8.67247 16.0411 6.59878 13.6501 6.30058L13.6255 6.31153Z"
            fill="white"/>
    <path
            d="M13.8454 8.17407C13.5964 8.17407 13.3529 8.20685 13.2626 8.4722C13.1231 8.87165 13.4131 8.96465 13.7086 9.0194C14.688 9.17803 15.205 9.75801 15.3035 10.7347C15.3309 11.0083 15.4978 11.2162 15.7548 11.1861C16.1105 11.1451 16.1433 10.8277 16.1324 10.5268C16.1515 9.43251 14.9068 8.15487 13.8454 8.18225V8.17407Z"
            fill="white"/>
</svg>
