<svg width="24" height="24" viewBox="0 0 24 24" fill="none" xmlns="http://www.w3.org/2000/svg">
    <path
            d="M4.07161 12.0966C4.07161 12.0966 11.5762 9.01339 14.1711 7.92837C15.1747 7.49435 18.5563 6.12005 18.5563 6.12005C18.5563 6.12005 20.1115 5.51428 19.9849 7.02425C19.9396 7.63002 19.5427 10.0896 19.2435 12.0513C18.8375 14.7129 18.1585 18.8596 18.1585 18.8596C18.1585 18.8596 18.0771 19.8542 17.3357 20.026C16.5942 20.1978 15.3917 19.4202 15.1747 19.2485C14.9577 19.0766 11.9198 17.1689 10.7895 16.2104C10.6762 16.1322 10.5842 16.0267 10.5222 15.9037C10.4602 15.7807 10.4301 15.6441 10.4346 15.5064C10.4391 15.3688 10.4781 15.2344 10.548 15.1157C10.6179 14.997 10.7165 14.8978 10.8347 14.8271C12.3989 13.3985 14.2615 11.6173 15.3555 10.4871C15.8709 9.97181 16.3953 8.76019 14.2254 10.234C11.1512 12.3588 8.11319 14.3479 8.11319 14.3479C7.79871 14.4817 7.46046 14.5506 7.11861 14.5506C6.77683 14.5506 6.43858 14.4817 6.12411 14.3479C4.82208 13.9591 3.3031 13.4437 3.3031 13.4437C3.3031 13.4437 2.26331 12.7927 4.03546 12.1056L4.07161 12.0966Z"
            fill="white"/>
</svg>
