<svg width="24" height="24" viewBox="0 0 24 24" fill="none" xmlns="http://www.w3.org/2000/svg">
    <path fill-rule="evenodd" clip-rule="evenodd"
          d="M7.84625 19.6999C9.1454 20.4047 10.5997 20.7745 12.0777 20.7758V20.812C14.0314 20.8147 15.9318 20.1748 17.4861 18.991C19.0403 17.8073 20.1621 16.1454 20.6788 14.2613C21.1955 12.3771 21.0783 10.3754 20.3452 8.56444C19.6122 6.75342 18.304 5.23386 16.6222 4.2396C14.9404 3.24537 12.9783 2.83174 11.0383 3.06244C9.0983 3.29314 7.28795 4.15537 5.8862 5.5163C4.48445 6.87717 3.56914 8.66127 3.28123 10.5936C2.99332 12.526 3.34882 14.4994 4.29298 16.2098L3 21.0289L7.84625 19.6999ZM8.4458 5.64335C9.5471 4.99588 10.8002 4.65166 12.0777 4.64568V4.65473C13.1954 4.64605 14.2999 4.89651 15.3045 5.38648C16.3092 5.87638 17.1866 6.59247 17.8679 7.47852C18.5493 8.36457 19.0159 9.39641 19.2314 10.4932C19.4469 11.5899 19.4053 12.7217 19.1099 13.7996C18.8145 14.8776 18.2732 15.8725 17.5286 16.7061C16.7841 17.5397 15.8565 18.1894 14.8185 18.6043C13.7807 19.0192 12.6608 19.1878 11.5468 19.0971C10.4328 19.0064 9.35488 18.6587 8.3978 18.0814L8.09045 17.9006L5.37793 18.6239L6.10123 15.9114L5.9114 15.6041C5.25343 14.509 4.89725 13.2592 4.8791 11.9818C4.86088 10.7044 5.18135 9.44501 5.80783 8.33164C6.4343 7.21835 7.3445 6.29075 8.4458 5.64335ZM15.666 15.3888C15.9481 15.1808 16.1751 14.9071 16.3273 14.5914V14.6004C16.4181 14.4123 16.4496 14.201 16.4177 13.9946C16.3338 13.613 15.9213 13.3796 15.588 13.191C15.5265 13.1562 15.4676 13.1229 15.414 13.0904C15.2365 12.9504 15.0299 12.8517 14.8094 12.8016C14.5888 12.7516 14.3598 12.7514 14.1393 12.8012C13.9091 12.882 13.7388 13.1555 13.5843 13.4037C13.5142 13.5162 13.4474 13.6235 13.3797 13.7053C13.3344 13.7671 13.2681 13.8103 13.1933 13.8269C13.1184 13.8436 13.0401 13.8325 12.9729 13.7957C11.7615 13.3201 10.7456 12.4506 10.0886 11.3274C10.0256 11.2617 9.99043 11.1743 9.99043 11.0832C9.99043 10.9923 10.0256 10.9048 10.0886 10.8392C10.3313 10.6038 10.5115 10.3117 10.613 9.98921C10.6301 9.63926 10.5486 9.29156 10.3779 8.98564C10.3504 8.92791 10.3227 8.86663 10.2942 8.80348C10.135 8.4512 9.94949 8.04083 9.62742 7.86447C9.4481 7.77949 9.24762 7.74957 9.05127 7.77859C8.85493 7.80754 8.67155 7.89402 8.5244 8.02722C8.26738 8.25094 8.06398 8.52964 7.92935 8.84269C7.79473 9.15574 7.7324 9.49504 7.7468 9.83554C7.74808 10.0246 7.7723 10.2129 7.8191 10.3961C7.93595 10.837 8.11895 11.2577 8.36165 11.6439C8.53265 11.9402 8.71978 12.227 8.9222 12.5027C9.58535 13.4123 10.4173 14.1859 11.3725 14.7812C11.8525 15.08 12.3652 15.3227 12.9006 15.5046C13.466 15.7629 14.0918 15.8599 14.7089 15.7849C15.0554 15.7328 15.384 15.5968 15.666 15.3888Z"
          fill="white"/>
</svg>
